<svg id="Layer_1" data-name="Layer 1" xmlns="http://www.w3.org/2000/svg" viewBox="0 0 32.75 32.68"><defs><style>.cls-1{fill:#c45449;}</style></defs><title>wheel4</title><path class="cls-1" d="M148.61,234.84a0.74,0.74,0,0,0,.06,1.09l0.28,0.23a1.2,1.2,0,0,1,.31,1.51,1.18,1.18,0,0,1-1.77.32l-0.25-.21a0.74,0.74,0,0,0-1.1.18l-0.33.57a0.74,0.74,0,0,0,.36,1l0.34,0.15a1.21,1.21,0,0,1,.72,1.37,1.17,1.17,0,0,1-1.6.81l-0.3-.13a0.73,0.73,0,0,0-1,.49q-0.08.32-.15,0.64a0.74,0.74,0,0,0,.64.9l0.4,0a1.19,1.19,0,0,1,1,1.31,0.67,0.67,0,0,1-.57,1.12l-1.05-.13a0.73,0.73,0,0,0-.82.75q0,0.33,0,.66a0.74,0.74,0,0,0,.86.68l0.39-.07a1.19,1.19,0,0,1,1.36,1,1.17,1.17,0,0,1-1,1.35l-0.32.05a0.73,0.73,0,0,0-.58,1q0.1,0.31.22,0.63a0.74,0.74,0,0,0,1,.41l0.36-.18a1.19,1.19,0,0,1,1.58.55h0a1.17,1.17,0,0,1-.54,1.57l-0.29.14a0.74,0.74,0,0,0-.28,1.08l0.38,0.54a0.74,0.74,0,0,0,1.09.11l0.29-.27a1.18,1.18,0,0,1,1.59,1.74l-0.24.22a0.74,0.74,0,0,0,0,1.11l0.52,0.41a0.74,0.74,0,0,0,1.08-.2l0.19-.31a1.18,1.18,0,1,1,2,1.2l-0.17.28a0.74,0.74,0,0,0,.34,1.06l0.61,0.25a0.73,0.73,0,0,0,1-.5l0.1-.39a1.17,1.17,0,0,1,1.44-.83h0a1.19,1.19,0,0,1,.84,1.44l-0.08.31a0.74,0.74,0,0,0,.63.93l0.66,0.07a0.73,0.73,0,0,0,.79-0.75v-0.4a1.17,1.17,0,0,1,1.14-1.2,1.19,1.19,0,0,1,1.21,1.15V262a0.74,0.74,0,0,0,.86.71l0.65-.12a0.73,0.73,0,0,0,.55-0.95l-0.12-.38a1.17,1.17,0,0,1,.75-1.48,1.19,1.19,0,0,1,1.48.76l0.1,0.31a0.74,0.74,0,0,0,1,.44L168,261a0.74,0.74,0,0,0,.26-1.06l-0.23-.33a1.17,1.17,0,1,1,1.94-1.32l0.18,0.27a0.74,0.74,0,0,0,1.1.14h0l0.48-.45a0.74,0.74,0,0,0-.06-1.09l-0.31-.25a1.17,1.17,0,1,1,1.49-1.81l0.25,0.21a0.74,0.74,0,0,0,1.1-.18l0.33-.57a0.74,0.74,0,0,0-.36-1l-0.37-.16a1.19,1.19,0,0,1-.63-1.55,1.17,1.17,0,0,1,1.54-.62l0.3,0.13a0.73,0.73,0,0,0,1-.49q0.08-.32.15-0.64a0.74,0.74,0,0,0-.64-0.9l-0.4,0a1.19,1.19,0,0,1-1-1.31,0.67,0.67,0,0,1,.57-1.12l1.05,0.13a0.73,0.73,0,0,0,.82-0.75q0-.33,0-0.66a0.74,0.74,0,0,0-.86-0.68l-0.36.06a1.21,1.21,0,0,1-1.34-.76,1.17,1.17,0,0,1,.91-1.55l0.32-.05a0.73,0.73,0,0,0,.58-1q-0.1-.31-0.22-0.63a0.74,0.74,0,0,0-1-.41l-0.33.16a1.2,1.2,0,0,1-1.49-.34,1.18,1.18,0,0,1,.42-1.76l0.29-.14a0.74,0.74,0,0,0,.28-1.08l-0.38-.54a0.74,0.74,0,0,0-1.09-.11l-0.29.27a1.18,1.18,0,0,1-1.59-1.74l0.24-.22a0.74,0.74,0,0,0,0-1.11l-0.52-.41a0.74,0.74,0,0,0-1.08.2l-0.19.31a1.18,1.18,0,1,1-2-1.2l0.17-.28a0.74,0.74,0,0,0-.34-1.06l-0.61-.25a0.73,0.73,0,0,0-1,.5l-0.09.36a1.18,1.18,0,1,1-2.28-.58l0.08-.31a0.74,0.74,0,0,0-.63-0.93l-0.66-.07a0.73,0.73,0,0,0-.79.75v0.36a1.18,1.18,0,1,1-2.35.09v-0.32a0.74,0.74,0,0,0-.86-0.71l-0.65.12a0.73,0.73,0,0,0-.55.95l0.12,0.38a1.17,1.17,0,0,1-.75,1.48,0.83,0.83,0,0,1-1.35-.36l-0.23-.71a0.74,0.74,0,0,0-1-.44l-0.59.3a0.74,0.74,0,0,0-.26,1.06l0.23,0.33a1.18,1.18,0,0,1-.48,1.73,1.2,1.2,0,0,1-1.48-.44l-0.16-.24a0.74,0.74,0,0,0-1.1-.14h0Zm15.23,21.75a1.13,1.13,0,1,1,.69-1.44A1.13,1.13,0,0,1,163.83,256.59Zm5.56-7.11a1.13,1.13,0,1,1-1.51.54A1.13,1.13,0,0,1,169.39,249.49ZM165,250.6a0.74,0.74,0,1,1-1.05,0A0.74,0.74,0,0,1,165,250.6Zm-11.22-5.13a0.74,0.74,0,1,1-.78.71A0.74,0.74,0,0,1,153.79,245.47Zm-2.38,5.37a1.13,1.13,0,1,1,.69-1.44A1.13,1.13,0,0,1,151.41,250.84Zm3.5,0.44a0.74,0.74,0,1,1,1.05,0A0.74,0.74,0,0,1,154.91,251.28Zm0.66,5a1.13,1.13,0,1,1,1.51-.54A1.13,1.13,0,0,1,155.57,256.24Zm4.29-2.69a0.74,0.74,0,1,1,.78-0.71A0.74,0.74,0,0,1,159.86,253.55Zm7.37-6.85a0.74,0.74,0,1,1-.71-0.78A0.74,0.74,0,0,1,167.23,246.7Zm1.6-4.66a1.13,1.13,0,1,1-.69,1.44A1.13,1.13,0,0,1,168.83,242Zm-3.5-.44a0.74,0.74,0,1,1-1.05,0A0.74,0.74,0,0,1,165.33,241.6Zm-2.68,2.61a3.55,3.55,0,1,1-5-.23A3.55,3.55,0,0,1,162.65,244.21Zm2-7.58a1.13,1.13,0,1,1-1.51.54A1.13,1.13,0,0,1,164.67,236.64Zm-4.29,2.69a0.74,0.74,0,1,1-.78.71A0.74,0.74,0,0,1,160.38,239.33Zm-4.05,1.95a0.74,0.74,0,1,1-1.05,0A0.74,0.74,0,0,1,156.33,241.28Zm-5.48,2.12a1.13,1.13,0,1,1,1.51-.54A1.13,1.13,0,0,1,150.85,243.39Zm5.56-7.11a1.13,1.13,0,1,1-.69,1.44A1.13,1.13,0,0,1,156.41,236.29Z" transform="translate(-143.8 -230.19)"/></svg>