<?xml version="1.0" encoding="UTF-8" standalone="no"?>
<svg width="19px" height="24px" viewBox="0 0 19 24" version="1.1" xmlns="http://www.w3.org/2000/svg" xmlns:xlink="http://www.w3.org/1999/xlink">
    <!-- Generator: Sketch 43.1 (39012) - http://www.bohemiancoding.com/sketch -->
    <title>Group</title>
    <desc>Created with Sketch.</desc>
    <defs></defs>
    <g id="Page-1" stroke="none" stroke-width="1" fill="none" fill-rule="evenodd">
        <g id="Group" transform="translate(-6.000000, -3.000000)" fill-rule="nonzero" fill="#FFFFFF">
            <path d="M24.2508888,11.9992414 C24.2508888,7.02847886 20.2213294,3 15.2516474,3 C10.2816053,3 6.25240601,7.02883906 6.25240601,11.9992414 L6.25852941,12.1058606 C6.24664281,12.297127 6.2419602,12.765027 6.39036268,13.5210872 C6.52219595,14.289034 6.74804146,15.0231219 7.05997482,15.7118247 C8.06493334,18.2415106 10.2967337,22.0279349 15.2523678,26.9850098 L15.2523678,26.9983372 L15.259932,26.9914935 L15.2660554,26.9983372 L15.2660554,26.9850098 C20.3027346,21.9447287 22.5233687,18.1197629 23.5020326,15.5911576 C23.7660594,14.9874622 23.961648,14.3506282 24.0877181,13.6871394 C24.3261706,12.5780831 24.251249,11.9996016 24.251249,11.9996016 L24.2508888,11.9992414 Z M15.2649748,16.4988621 C12.7795935,16.4988621 10.7653541,14.4846227 10.7653541,11.9992414 C10.7653541,9.51386013 12.7795935,7.49962069 15.2649748,7.49962069 C17.7489153,7.49962069 19.7645955,9.51386013 19.7645955,11.9992414 C19.7645955,14.4846227 17.7485551,16.4988621 15.2649748,16.4988621 Z" id="Shape"></path>
        </g>
    </g>
</svg>